<svg width="128" height="128" viewBox="0 0 128 128" xmlns="http://www.w3.org/2000/svg" xmlns:xlink="http://www.w3.org/1999/xlink"><title>header-icon</title><defs><path d="M103 75.647v38.36c0 4.41-3.58 7.993-8 7.993H15c-4.412 0-8-3.58-8-7.994V15.994C7 11.584 10.58 8 15 8h80c4.412 0 8 3.58 8 7.994V54.88c.768.687 1.83 1.167 3.297 1.167 5.146 0 2.27-6.047 10.747-6.047C125.52 50 127 59.574 127 65c0 3.72-.994 15-9.47 15s-6.087-5.426-11.233-5.426c-1.468 0-2.53.442-3.297 1.073z" id="a"/></defs><g fill="none" fill-rule="evenodd"><use xlink:href="#a"/><use fill="#F95D5E" xlink:href="#a"/><path d="M54.5 90C68.03 90 79 79.03 79 65.5S68.03 41 54.5 41 30 51.97 30 65.5 40.97 90 54.5 90zM39 68v-5h30v5H39z" fill="#FFF"/></g></svg>